<mxfile host="Electron" agent="Mozilla/5.0 (Windows NT 10.0; Win64; x64) AppleWebKit/537.36 (KHTML, like Gecko) draw.io/24.7.17 Chrome/128.0.6613.36 Electron/32.0.1 Safari/537.36" version="24.7.17">
  <diagram id="C5RBs43oDa-KdzZeNtuy" name="Page-1">
    <mxGraphModel dx="1382" dy="982" grid="1" gridSize="10" guides="1" tooltips="1" connect="1" arrows="1" fold="1" page="1" pageScale="1" pageWidth="827" pageHeight="1169" math="0" shadow="0">
      <root>
        <mxCell id="WIyWlLk6GJQsqaUBKTNV-0" />
        <mxCell id="WIyWlLk6GJQsqaUBKTNV-1" parent="WIyWlLk6GJQsqaUBKTNV-0" />
        <mxCell id="8ugVBGTUYjzquRtOjpoh-9" style="edgeStyle=orthogonalEdgeStyle;rounded=0;orthogonalLoop=1;jettySize=auto;html=1;exitX=0.5;exitY=1;exitDx=0;exitDy=0;" edge="1" parent="WIyWlLk6GJQsqaUBKTNV-1" source="8ugVBGTUYjzquRtOjpoh-0" target="8ugVBGTUYjzquRtOjpoh-7">
          <mxGeometry relative="1" as="geometry" />
        </mxCell>
        <mxCell id="8ugVBGTUYjzquRtOjpoh-0" value="Начало" style="ellipse;whiteSpace=wrap;html=1;" vertex="1" parent="WIyWlLk6GJQsqaUBKTNV-1">
          <mxGeometry x="-60" y="60" width="120" height="80" as="geometry" />
        </mxCell>
        <mxCell id="8ugVBGTUYjzquRtOjpoh-1" value="Конец" style="ellipse;whiteSpace=wrap;html=1;" vertex="1" parent="WIyWlLk6GJQsqaUBKTNV-1">
          <mxGeometry x="-60" y="840" width="120" height="80" as="geometry" />
        </mxCell>
        <mxCell id="8ugVBGTUYjzquRtOjpoh-5" value="" style="endArrow=none;dashed=1;html=1;dashPattern=1 3;strokeWidth=2;rounded=0;" edge="1" parent="WIyWlLk6GJQsqaUBKTNV-1" target="8ugVBGTUYjzquRtOjpoh-6">
          <mxGeometry width="50" height="50" relative="1" as="geometry">
            <mxPoint y="160" as="sourcePoint" />
            <mxPoint y="160" as="targetPoint" />
          </mxGeometry>
        </mxCell>
        <mxCell id="8ugVBGTUYjzquRtOjpoh-6" value="&lt;div&gt;#include &amp;lt;iostream&amp;gt;&lt;/div&gt;&lt;div&gt;using namespace std;&lt;/div&gt;&lt;div&gt;int main()&lt;/div&gt;&lt;div&gt;{&lt;/div&gt;&lt;div&gt;&amp;nbsp; &amp;nbsp; setlocale(LC_ALL, &quot;Russian&quot;);&lt;/div&gt;&lt;div&gt;&amp;nbsp; &amp;nbsp; float a, b;&lt;/div&gt;" style="strokeWidth=2;html=1;shape=mxgraph.flowchart.annotation_1;align=left;pointerEvents=1;" vertex="1" parent="WIyWlLk6GJQsqaUBKTNV-1">
          <mxGeometry x="195" y="110" width="50" height="100" as="geometry" />
        </mxCell>
        <mxCell id="8ugVBGTUYjzquRtOjpoh-12" style="edgeStyle=orthogonalEdgeStyle;rounded=0;orthogonalLoop=1;jettySize=auto;html=1;exitX=0.5;exitY=1;exitDx=0;exitDy=0;entryX=0.5;entryY=0;entryDx=0;entryDy=0;" edge="1" parent="WIyWlLk6GJQsqaUBKTNV-1" source="8ugVBGTUYjzquRtOjpoh-7">
          <mxGeometry relative="1" as="geometry">
            <mxPoint x="-2.2737367544323206e-13" y="280" as="targetPoint" />
          </mxGeometry>
        </mxCell>
        <mxCell id="8ugVBGTUYjzquRtOjpoh-7" value="cout &amp;lt;&amp;lt; &quot;Введите число: \n&quot;;" style="shape=parallelogram;perimeter=parallelogramPerimeter;whiteSpace=wrap;html=1;fixedSize=1;" vertex="1" parent="WIyWlLk6GJQsqaUBKTNV-1">
          <mxGeometry x="-97.5" y="190" width="195" height="60" as="geometry" />
        </mxCell>
        <mxCell id="8ugVBGTUYjzquRtOjpoh-32" value="" style="endArrow=none;dashed=1;html=1;dashPattern=1 3;strokeWidth=2;rounded=0;" edge="1" parent="WIyWlLk6GJQsqaUBKTNV-1" target="8ugVBGTUYjzquRtOjpoh-33">
          <mxGeometry width="50" height="50" relative="1" as="geometry">
            <mxPoint y="810" as="sourcePoint" />
            <mxPoint y="810" as="targetPoint" />
          </mxGeometry>
        </mxCell>
        <mxCell id="8ugVBGTUYjzquRtOjpoh-33" value="&lt;div&gt;&amp;nbsp; &amp;nbsp; return 0;&lt;/div&gt;&lt;div&gt;}&lt;/div&gt;" style="strokeWidth=2;html=1;shape=mxgraph.flowchart.annotation_1;align=left;pointerEvents=1;" vertex="1" parent="WIyWlLk6GJQsqaUBKTNV-1">
          <mxGeometry x="220" y="760" width="65" height="100" as="geometry" />
        </mxCell>
        <mxCell id="8ugVBGTUYjzquRtOjpoh-42" style="edgeStyle=orthogonalEdgeStyle;rounded=0;orthogonalLoop=1;jettySize=auto;html=1;exitX=0.5;exitY=1;exitDx=0;exitDy=0;entryX=0.5;entryY=0;entryDx=0;entryDy=0;" edge="1" parent="WIyWlLk6GJQsqaUBKTNV-1" source="8ugVBGTUYjzquRtOjpoh-40" target="8ugVBGTUYjzquRtOjpoh-41">
          <mxGeometry relative="1" as="geometry" />
        </mxCell>
        <mxCell id="8ugVBGTUYjzquRtOjpoh-40" value="cin &amp;gt;&amp;gt; a;" style="shape=parallelogram;perimeter=parallelogramPerimeter;whiteSpace=wrap;html=1;fixedSize=1;" vertex="1" parent="WIyWlLk6GJQsqaUBKTNV-1">
          <mxGeometry x="-97.5" y="280" width="195" height="60" as="geometry" />
        </mxCell>
        <mxCell id="8ugVBGTUYjzquRtOjpoh-51" style="edgeStyle=orthogonalEdgeStyle;rounded=0;orthogonalLoop=1;jettySize=auto;html=1;exitX=0;exitY=0.5;exitDx=0;exitDy=0;entryX=0.5;entryY=0;entryDx=0;entryDy=0;" edge="1" parent="WIyWlLk6GJQsqaUBKTNV-1" source="8ugVBGTUYjzquRtOjpoh-41" target="8ugVBGTUYjzquRtOjpoh-50">
          <mxGeometry relative="1" as="geometry" />
        </mxCell>
        <mxCell id="8ugVBGTUYjzquRtOjpoh-53" style="edgeStyle=orthogonalEdgeStyle;rounded=0;orthogonalLoop=1;jettySize=auto;html=1;exitX=1;exitY=0.5;exitDx=0;exitDy=0;entryX=0.5;entryY=0;entryDx=0;entryDy=0;" edge="1" parent="WIyWlLk6GJQsqaUBKTNV-1" source="8ugVBGTUYjzquRtOjpoh-41" target="8ugVBGTUYjzquRtOjpoh-52">
          <mxGeometry relative="1" as="geometry" />
        </mxCell>
        <mxCell id="8ugVBGTUYjzquRtOjpoh-41" value="if (a &lt; 5)" style="rhombus;whiteSpace=wrap;html=1;" vertex="1" parent="WIyWlLk6GJQsqaUBKTNV-1">
          <mxGeometry x="-60" y="370" width="120" height="80" as="geometry" />
        </mxCell>
        <mxCell id="8ugVBGTUYjzquRtOjpoh-48" value="1" style="text;html=1;align=center;verticalAlign=middle;resizable=0;points=[];autosize=1;strokeColor=none;fillColor=none;" vertex="1" parent="WIyWlLk6GJQsqaUBKTNV-1">
          <mxGeometry x="-175" y="388" width="30" height="30" as="geometry" />
        </mxCell>
        <mxCell id="8ugVBGTUYjzquRtOjpoh-49" value="0" style="text;html=1;align=center;verticalAlign=middle;resizable=0;points=[];autosize=1;strokeColor=none;fillColor=none;" vertex="1" parent="WIyWlLk6GJQsqaUBKTNV-1">
          <mxGeometry x="120" y="388" width="30" height="30" as="geometry" />
        </mxCell>
        <mxCell id="8ugVBGTUYjzquRtOjpoh-63" style="edgeStyle=orthogonalEdgeStyle;rounded=0;orthogonalLoop=1;jettySize=auto;html=1;exitX=0.5;exitY=1;exitDx=0;exitDy=0;entryX=0.5;entryY=0;entryDx=0;entryDy=0;" edge="1" parent="WIyWlLk6GJQsqaUBKTNV-1" source="8ugVBGTUYjzquRtOjpoh-50" target="8ugVBGTUYjzquRtOjpoh-59">
          <mxGeometry relative="1" as="geometry">
            <Array as="points">
              <mxPoint x="-160" y="660" />
              <mxPoint y="660" />
            </Array>
          </mxGeometry>
        </mxCell>
        <mxCell id="8ugVBGTUYjzquRtOjpoh-50" value="b = a * 3;" style="rounded=0;whiteSpace=wrap;html=1;" vertex="1" parent="WIyWlLk6GJQsqaUBKTNV-1">
          <mxGeometry x="-220" y="470" width="120" height="60" as="geometry" />
        </mxCell>
        <mxCell id="8ugVBGTUYjzquRtOjpoh-55" style="edgeStyle=orthogonalEdgeStyle;rounded=0;orthogonalLoop=1;jettySize=auto;html=1;exitX=0;exitY=0.5;exitDx=0;exitDy=0;entryX=0.5;entryY=0;entryDx=0;entryDy=0;" edge="1" parent="WIyWlLk6GJQsqaUBKTNV-1" source="8ugVBGTUYjzquRtOjpoh-52" target="8ugVBGTUYjzquRtOjpoh-54">
          <mxGeometry relative="1" as="geometry" />
        </mxCell>
        <mxCell id="8ugVBGTUYjzquRtOjpoh-57" style="edgeStyle=orthogonalEdgeStyle;rounded=0;orthogonalLoop=1;jettySize=auto;html=1;exitX=1;exitY=0.5;exitDx=0;exitDy=0;entryX=0.5;entryY=0;entryDx=0;entryDy=0;" edge="1" parent="WIyWlLk6GJQsqaUBKTNV-1" source="8ugVBGTUYjzquRtOjpoh-52" target="8ugVBGTUYjzquRtOjpoh-56">
          <mxGeometry relative="1" as="geometry" />
        </mxCell>
        <mxCell id="8ugVBGTUYjzquRtOjpoh-52" value="if (a &amp;gt; 5 and a &amp;lt; 7)" style="rhombus;whiteSpace=wrap;html=1;" vertex="1" parent="WIyWlLk6GJQsqaUBKTNV-1">
          <mxGeometry x="75" y="460" width="120" height="80" as="geometry" />
        </mxCell>
        <mxCell id="8ugVBGTUYjzquRtOjpoh-62" style="edgeStyle=orthogonalEdgeStyle;rounded=0;orthogonalLoop=1;jettySize=auto;html=1;exitX=0.5;exitY=1;exitDx=0;exitDy=0;" edge="1" parent="WIyWlLk6GJQsqaUBKTNV-1" source="8ugVBGTUYjzquRtOjpoh-54">
          <mxGeometry relative="1" as="geometry">
            <mxPoint y="720" as="targetPoint" />
          </mxGeometry>
        </mxCell>
        <mxCell id="8ugVBGTUYjzquRtOjpoh-54" value="b = a / 10;" style="rounded=0;whiteSpace=wrap;html=1;" vertex="1" parent="WIyWlLk6GJQsqaUBKTNV-1">
          <mxGeometry x="-60" y="570" width="120" height="60" as="geometry" />
        </mxCell>
        <mxCell id="8ugVBGTUYjzquRtOjpoh-61" style="edgeStyle=orthogonalEdgeStyle;rounded=0;orthogonalLoop=1;jettySize=auto;html=1;exitX=0.5;exitY=1;exitDx=0;exitDy=0;" edge="1" parent="WIyWlLk6GJQsqaUBKTNV-1" source="8ugVBGTUYjzquRtOjpoh-56" target="8ugVBGTUYjzquRtOjpoh-59">
          <mxGeometry relative="1" as="geometry" />
        </mxCell>
        <mxCell id="8ugVBGTUYjzquRtOjpoh-56" value="b = a + 3;" style="rounded=0;whiteSpace=wrap;html=1;" vertex="1" parent="WIyWlLk6GJQsqaUBKTNV-1">
          <mxGeometry x="195" y="570" width="120" height="60" as="geometry" />
        </mxCell>
        <mxCell id="8ugVBGTUYjzquRtOjpoh-60" style="edgeStyle=orthogonalEdgeStyle;rounded=0;orthogonalLoop=1;jettySize=auto;html=1;exitX=0.5;exitY=1;exitDx=0;exitDy=0;entryX=0.5;entryY=0;entryDx=0;entryDy=0;" edge="1" parent="WIyWlLk6GJQsqaUBKTNV-1" source="8ugVBGTUYjzquRtOjpoh-59" target="8ugVBGTUYjzquRtOjpoh-1">
          <mxGeometry relative="1" as="geometry" />
        </mxCell>
        <mxCell id="8ugVBGTUYjzquRtOjpoh-59" value="cout &amp;lt;&amp;lt; b &amp;lt;&amp;lt; endl;" style="shape=parallelogram;perimeter=parallelogramPerimeter;whiteSpace=wrap;html=1;fixedSize=1;" vertex="1" parent="WIyWlLk6GJQsqaUBKTNV-1">
          <mxGeometry x="-97.5" y="720" width="195" height="60" as="geometry" />
        </mxCell>
      </root>
    </mxGraphModel>
  </diagram>
</mxfile>
